DBRep_DrawableShape

CASCADE Topology V1, (c) Matra-Datavision
Locations 17
1
              1               0               0              -5 
              0               1               0              -5 
              0               0               1               0 
1
              1               0               0               0 
              0               1               0               0 
              0               0               1               0 
1
              1               0               0               5 
              0               1               0               5 
              0               0               1            -100 
2  2 1 3 1 0
2  3 -1 2 -1 0
1
              1               0               0               0 
              0               1               0               0 
              0               0               1               0 
1
              1               0               0               0 
              0               1               0               0 
              0               0               1               0 
2  6 1 7 1 3 -1 2 -1 0
2  6 1 7 1 0
2  7 -1 6 -1 0
2  2 1 3 1 7 -1 6 -1 0
1
              1               0               0               0 
              0               1               0               0 
              0               0               1               0 
1
              1               0               0               5 
              0               1               0               5 
              0               0               1              10 
2  12 1 13 1 7 -1 6 -1 0
2  12 1 13 1 0
2  6 1 7 1 13 -1 12 -1 0
2  13 -1 12 -1 0
Curve2ds 44
1 6.2831853071795862 -0 0 1 
1 0 -0 0 1 
1 0 0 1 0 
2 0 0 1 0 -0 1 5
1 0 100 1 0 
2 0 0 1 0 -0 1 5
2 5 5 1 0 -0 1 5
2 5 5 1 0 -0 1 5
2 5 5 1 0 -0 1 5
2 5 5 1 0 -0 1 5
1 0 0 0 1 
1 0 10 1 0 
1 0 0 0 -1 
1 10 0 0 1 
1 0 0 0 -1 
1 0 0 0 1 
1 0 0 0 1 
1 0 0 1 0 
1 0 -10 1 0 
1 0 10 1 0 
1 10 0 0 1 
1 0 10 1 0 
1 0 -10 1 0 
1 0 0 1 0 
1 0 0 1 0 
1 0 10 1 0 
1 10 0 0 -1 
1 10 0 0 1 
1 0 0 1 0 
1 0 0 1 0 
1 10 0 0 -1 
1 0 0 0 1 
1 10 0 0 1 
1 0 0 1 0 
1 0 0 1 0 
2 0 0 1 0 -0 1 5
2 5 5 1 0 -0 1 5
2 5 5 1 0 -0 1 5
2 5 5 1 0 -0 1 5
2 5 5 1 0 -0 1 5
1 6.2831853071795862 -0 0 1 
1 0 -0 0 1 
1 0 50 1 0 
2 0 0 1 0 -0 1 5
Curves 18
1 5 -1.2246467991473533e-15 0 0 0 1 
2 0 0 0 0 0 1 1 0 -0 -0 1 0 5
2 0 0 100 0 0 1 1 0 -0 -0 1 0 5
1 0 10 0 1 0 -0 
1 10 0 0 -0 1 0 
1 0 0 0 -0 1 0 
1 0 0 0 1 0 -0 
1 10 10 0 0 0 1 
1 0 10 10 1 0 -0 
1 0 10 0 0 0 1 
1 10 0 0 0 0 1 
1 10 0 10 -0 1 0 
1 0 0 0 0 0 1 
1 0 0 10 -0 1 0 
1 0 0 10 1 0 -0 
2 0 0 0 0 0 1 1 0 -0 -0 1 0 5
1 5 -1.2246467991473533e-15 0 0 0 1 
2 0 0 50 0 0 1 1 0 -0 -0 1 0 5
Polygon3D 0
PolygonOnTriangulations 78
2 28 1 
p 0.2 1 0 100 
2 54 27 
p 0.2 1 0 100 
2 1 2 
p 0.3 1 0 100 
2 31 24 
p 0.3 1 0 100 
27 28 29 30 31 32 33 34 35 36 37 38 39 40 41 42 43 44 45 46 47 48 49 50 51 52 53 54 
p 0.2 1 0 0.241660973353061 0.483321946706122 0.724982920059183 0.966643893412244 1.2083048667653 1.44996584011837 1.69162681347143 1.93328778682449 2.17494876017755 2.41660973353061 2.65827070688367 2.89993168023673 3.14159265358979 3.38325362694285 3.62491460029591 3.86657557364897 4.10823654700204 4.3498975203551 4.59155849370816 4.83321946706122 5.07488044041428 5.31654141376734 5.5582023871204 5.79986336047346 6.04152433382652 6.28318530717959 
27 1 2 3 4 5 6 7 8 9 10 11 12 13 14 15 16 17 18 19 20 21 22 23 24 25 26 1 
p 0.2 1 0 0.241660973353061 0.483321946706122 0.724982920059183 0.966643893412244 1.2083048667653 1.44996584011837 1.69162681347143 1.93328778682449 2.17494876017755 2.41660973353061 2.65827070688367 2.89993168023673 3.14159265358979 3.38325362694285 3.62491460029591 3.86657557364897 4.10823654700204 4.3498975203551 4.59155849370816 4.83321946706122 5.07488044041428 5.31654141376734 5.5582023871204 5.79986336047346 6.04152433382652 6.28318530717959 
27 31 32 33 34 35 36 37 38 39 40 41 42 43 44 45 46 47 48 49 50 51 52 53 54 55 56 1 
p 0.2 1 0 0.241660973353061 0.483321946706122 0.724982920059183 0.966643893412244 1.2083048667653 1.44996584011837 1.69162681347143 1.93328778682449 2.17494876017755 2.41660973353061 2.65827070688367 2.89993168023673 3.14159265358979 3.38325362694285 3.62491460029591 3.86657557364897 4.10823654700204 4.3498975203551 4.59155849370816 4.83321946706122 5.07488044041428 5.31654141376734 5.5582023871204 5.79986336047346 6.04152433382652 6.28318530717959 
8 24 25 26 27 28 29 30 17 
p 0.3 1 0 0.224399475256419 0.448798950512838 0.673198425769257 0.897597901025676 1.1219973762821 1.34639685153851 1.57079632679493 
8 3 4 5 6 7 8 9 1 
p 0.3 1 0 0.224399475256419 0.448798950512838 0.673198425769257 0.897597901025676 1.1219973762821 1.34639685153851 1.57079632679493 
8 17 18 19 20 21 22 23 10 
p 0.3 1 1.57079632679493 1.79519580205134 2.01959527730775 2.24399475256416 2.46839422782057 2.69279370307698 2.91719317833338 3.14159265358979 
8 3 4 5 6 7 8 9 1 
p 0.3 1 1.57079632679493 1.79519580205134 2.01959527730775 2.24399475256416 2.46839422782057 2.69279370307698 2.91719317833338 3.14159265358979 
8 10 11 12 13 14 15 16 3 
p 0.3 1 3.14159265358979 3.36599212884618 3.59039160410257 3.81479107935896 4.03919055461535 4.26359002987174 4.48798950512813 4.71238898038452 
8 2 4 5 6 7 8 9 3 
p 0.3 1 3.14159265358979 3.36599212884618 3.59039160410257 3.81479107935896 4.03919055461535 4.26359002987174 4.48798950512813 4.71238898038452 
8 3 4 5 6 7 8 9 2 
p 0.3 1 4.71238898038452 4.93678845564096 5.16118793089739 5.38558740615383 5.60998688141027 5.83438635666671 6.05878583192315 6.28318530717959 
8 1 2 3 4 5 6 7 8 
p 0.3 1 4.71238898038452 4.93678845564096 5.16118793089739 5.38558740615383 5.60998688141027 5.83438635666671 6.05878583192315 6.28318530717959 
2 1 2 
p 0.3 1 4.99999999999982 10 
2 2 6 
p 0.3 1 4.99999999999982 10 
2 3 2 
p 0.3 1 5 10 
2 3 4 
p 0.3 1 5 10 
2 1 2 
p 0.3 1 5 10 
2 3 4 
p 0.3 1 5 10 
2 2 3 
p 0.3 1 0 4.99999999999982 
2 1 2 
p 0.3 1 0 4.99999999999982 
2 1 2 
p 0.3 1 0 5 
2 1 3 
p 0.3 1 0 5 
2 1 3 
p 0.3 1 0 4.99999999999915 
2 1 2 
p 0.3 1 0 4.99999999999915 
2 9 8 
p 0.3 1 0 5 
2 1 3 
p 0.3 1 0 5 
2 1 9 
p 0.3 1 4.99999999999915 10 
2 2 6 
p 0.3 1 4.99999999999915 10 
2 3 4 
p 0.05 1 0 10 
2 2 4 
p 0.05 1 0 10 
2 6 5 
p 0.3 1 0 10 
2 4 5 
p 0.3 1 0 10 
2 3 4 
p 0.3 1 0 4.99999999999982 
2 2 3 
p 0.3 1 0 4.99999999999982 
2 4 5 
p 0.3 1 4.99999999999982 10 
2 1 2 
p 0.3 1 4.99999999999982 10 
2 3 4 
p 0.05 1 0 10 
2 1 3 
p 0.05 1 0 10 
2 1 3 
p 0.3 1 0 10 
2 4 5 
p 0.3 1 0 10 
2 1 2 
p 0.05 1 0 10 
2 2 4 
p 0.05 1 0 10 
2 1 2 
p 0.3 1 0 10 
2 6 5 
p 0.3 1 0 10 
2 2 6 
p 0.3 1 0 5 
2 9 8 
p 0.3 1 0 5 
2 6 5 
p 0.3 1 5 10 
2 3 2 
p 0.3 1 5 10 
2 1 2 
p 0.05 1 0 10 
2 1 3 
p 0.05 1 0 10 
2 1 2 
p 0.3 1 0 10 
2 1 3 
p 0.3 1 0 10 
2 2 6 
p 0.3 1 0 5 
2 1 2 
p 0.3 1 0 5 
2 6 5 
p 0.3 1 5 10 
2 1 2 
p 0.3 1 5 10 
2 3 4 
p 0.3 1 0 4.99999999999915 
2 1 3 
p 0.3 1 0 4.99999999999915 
2 4 5 
p 0.3 1 4.99999999999915 10 
2 1 9 
p 0.3 1 4.99999999999915 10 
8 36 37 38 39 40 41 42 43 
p 0.3 1 1.57079632679493 1.79519580205134 2.01959527730775 2.24399475256416 2.46839422782057 2.69279370307698 2.91719317833338 3.14159265358979 
8 3 4 5 6 7 8 9 1 
p 0.3 1 1.57079632679493 1.79519580205134 2.01959527730775 2.24399475256416 2.46839422782057 2.69279370307698 2.91719317833338 3.14159265358979 
8 29 30 31 32 33 34 35 36 
p 0.3 1 0 0.224399475256419 0.448798950512838 0.673198425769257 0.897597901025676 1.1219973762821 1.34639685153851 1.57079632679493 
8 3 4 5 6 7 8 9 1 
p 0.3 1 0 0.224399475256419 0.448798950512838 0.673198425769257 0.897597901025676 1.1219973762821 1.34639685153851 1.57079632679493 
8 50 51 52 53 54 55 56 1 
p 0.3 1 4.71238898038452 4.93678845564096 5.16118793089739 5.38558740615383 5.60998688141027 5.83438635666671 6.05878583192315 6.28318530717959 
8 1 2 3 4 5 6 7 8 
p 0.3 1 4.71238898038452 4.93678845564096 5.16118793089739 5.38558740615383 5.60998688141027 5.83438635666671 6.05878583192315 6.28318530717959 
8 43 44 45 46 47 48 49 50 
p 0.3 1 3.14159265358979 3.36599212884618 3.59039160410257 3.81479107935896 4.03919055461535 4.26359002987174 4.48798950512813 4.71238898038452 
8 2 4 5 6 7 8 9 3 
p 0.3 1 3.14159265358979 3.36599212884618 3.59039160410257 3.81479107935896 4.03919055461535 4.26359002987174 4.48798950512813 4.71238898038452 
2 28 1 
p 0.116666666666667 1 0 50 
2 54 27 
p 0.116666666666667 1 0 50 
2 1 2 
p 0.3 1 0 50 
2 29 3 
p 0.3 1 0 50 
27 1 2 3 4 5 6 7 8 9 10 11 12 13 14 15 16 17 18 19 20 21 22 23 24 25 26 27 
p 0.116666666666667 1 0 0.241660973353061 0.483321946706122 0.724982920059183 0.966643893412244 1.2083048667653 1.44996584011837 1.69162681347143 1.93328778682449 2.17494876017755 2.41660973353061 2.65827070688367 2.89993168023673 3.14159265358979 3.38325362694285 3.62491460029591 3.86657557364897 4.10823654700204 4.3498975203551 4.59155849370816 4.83321946706122 5.07488044041428 5.31654141376734 5.5582023871204 5.79986336047346 6.04152433382652 6.28318530717959 
27 1 2 3 4 5 6 7 8 9 10 11 12 13 14 15 16 17 18 19 20 21 22 23 24 25 26 1 
p 0.116666666666667 1 0 0.241660973353061 0.483321946706122 0.724982920059183 0.966643893412244 1.2083048667653 1.44996584011837 1.69162681347143 1.93328778682449 2.17494876017755 2.41660973353061 2.65827070688367 2.89993168023673 3.14159265358979 3.38325362694285 3.62491460029591 3.86657557364897 4.10823654700204 4.3498975203551 4.59155849370816 4.83321946706122 5.07488044041428 5.31654141376734 5.5582023871204 5.79986336047346 6.04152433382652 6.28318530717959 
27 3 4 5 6 7 8 9 10 11 12 13 14 15 16 17 18 19 20 21 22 23 24 25 26 27 28 2 
p 0.116666666666667 1 0 0.241660973353061 0.483321946706122 0.724982920059183 0.966643893412244 1.2083048667653 1.44996584011837 1.69162681347143 1.93328778682449 2.17494876017755 2.41660973353061 2.65827070688367 2.89993168023673 3.14159265358979 3.38325362694285 3.62491460029591 3.86657557364897 4.10823654700204 4.3498975203551 4.59155849370816 4.83321946706122 5.07488044041428 5.31654141376734 5.5582023871204 5.79986336047346 6.04152433382652 6.28318530717959 
Surfaces 12
2 0 0 0 0 0 1 1 0 -0 -0 1 0 5
1 0 0 0 0 0 1 1 0 -0 -0 1 0 
1 0 0 100 0 0 1 1 0 -0 -0 1 0 
1 0 0 0 0 0 1 1 0 -0 -0 1 0 
1 0 10 0 -0 1 0 0 0 1 1 0 -0 
1 10 0 0 1 0 -0 0 0 1 0 -1 0 
1 0 0 0 1 0 -0 0 0 1 0 -1 0 
1 0 0 0 -0 1 0 0 0 1 1 0 -0 
1 0 0 10 0 0 1 1 0 -0 -0 1 0 
2 0 0 0 0 0 1 1 0 -0 -0 1 0 5
1 0 0 0 0 0 1 1 0 -0 -0 1 0 
1 0 0 50 0 0 1 1 0 -0 -0 1 0 
Triangulations 22
56 54 1 0.3
10 5 -100 10 5 0 4.99999999999915 0 0 6.11260466978086 0.125360439090719 0 7.16941869558724 0.495155660487637 0 8.11744900929328 1.09084258765954 0 8.90915741233992 1.88255099070604 0 9.50484433951199 2.83058130441198 0 9.87463956090909 3.8873953302183 0 0 5 0 0.125360439090855 3.88739533021855 0 0.495155660487798 2.83058130441243 0 1.09084258765962 1.88255099070662 0 1.88255099070595 1.09084258766016 0 2.83058130441166 0.495155660488169 0 3.88739533021772 0.125360439091044 0 4.99999999999982 10 0 3.88739533021828 9.87463956090908 0 2.83058130441209 9.50484433951204 0 1.88255099070625 8.90915741234008 0 1.0908425876598 8.11744900929361 0 0.495155660487883 7.16941869558775 0 0.125360439090877 6.11260466978155 0 10 5 0 9.87463956090911 6.1126046697816 0 9.50484433951207 7.16941869558784 0 8.9091574123401 8.11744900929373 0 8.11744900929359 8.90915741234021 0 7.16941869558767 9.50484433951215 0 6.11260466978142 9.87463956090915 0 10 5 -100 9.85470908713026 6.19657832143779 -100 9.42728012826605 7.32361586021884 -100 8.74255374085551 8.31561329120398 -100 7.84032373365578 9.11491932946828 -100 6.77302443521268 9.67508121342707 -100 5.60268340127662 9.96354437049027 -100 4.39731659872339 9.96354437049027 -100 3.22697556478732 9.67508121342707 -100 2.15967626634422 9.11491932946828 -100 1.2574462591445 8.31561329120398 -100 0.572719871733952 7.32361586021885 -100 0.145290912869741 6.19657832143779 -100 0 5.00000000000001 -100 0.145290912869738 3.80342167856222 -100 0.572719871733947 2.67638413978116 -100 1.25744625914449 1.68438670879603 -100 2.15967626634421 0.885080670531723 -100 3.22697556478731 0.32491878657293 -100 4.39731659872337 0.0364556295097316 -100 5.6026834012766 0.036455629509728 -100 6.77302443521267 0.324918786572921 -100 7.84032373365577 0.88508067053171 -100 8.7425537408555 1.68438670879601 -100 9.42728012826604 2.67638413978114 -100 9.85470908713026 3.80342167856219 -100 6.28318530717959 0 6.28318530717959 100 4.71238898038452 100 4.93678845564096 100 5.16118793089739 100 5.38558740615383 100 5.60998688141027 100 5.83438635666671 100 6.05878583192315 100 3.14159265358979 100 3.36599212884618 100 3.59039160410257 100 3.81479107935896 100 4.03919055461535 100 4.26359002987174 100 4.48798950512813 100 1.57079632679493 100 1.79519580205134 100 2.01959527730775 100 2.24399475256416 100 2.46839422782057 100 2.69279370307698 100 2.91719317833338 100 0 100 0.224399475256419 100 0.448798950512838 100 0.673198425769257 100 0.897597901025676 100 1.1219973762821 100 1.34639685153851 100 0 0 0.241660973353061 0 0.483321946706122 0 0.724982920059183 0 0.966643893412244 0 1.2083048667653 0 1.44996584011837 0 1.69162681347143 0 1.93328778682449 0 2.17494876017755 0 2.41660973353061 0 2.65827070688367 0 2.89993168023673 0 3.14159265358979 0 3.38325362694285 0 3.62491460029591 0 3.86657557364897 0 4.10823654700204 0 4.3498975203551 0 4.59155849370816 0 4.83321946706122 0 5.07488044041428 0 5.31654141376734 0 5.5582023871204 0 5.79986336047346 0 6.04152433382652 0 25 24 31 25 31 32 26 32 33 26 25 32 27 33 34 27 26 33 28 34 35 28 27 34 29 35 36 29 28 35 30 36 37 30 29 36 17 37 38 17 30 37 18 38 39 18 17 38 19 39 40 19 18 39 20 40 41 20 19 40 21 20 41 21 41 42 22 21 42 22 42 43 23 22 43 23 43 44 10 23 44 11 10 44 11 44 45 12 11 45 12 45 46 13 12 46 13 46 47 14 13 47 14 47 48 15 14 48 15 48 49 16 15 49 16 49 50 3 16 50 3 50 51 4 3 51 4 51 52 5 4 52 5 52 53 6 5 53 6 53 54 7 54 55 7 6 54 8 55 56 8 7 55 9 56 1 9 8 56 2 9 1 
54 52 1 0.2
5 -1.22464679914735e-15 100 4.85470908713026 1.19657832143779 100 4.42728012826605 2.32361586021884 100 3.74255374085551 3.31561329120398 100 2.84032373365578 4.11491932946828 100 1.77302443521268 4.67508121342707 100 0.602683401276616 4.96354437049027 100 -0.602683401276614 4.96354437049027 100 -1.77302443521268 4.67508121342707 100 -2.84032373365578 4.11491932946828 100 -3.7425537408555 3.31561329120398 100 -4.42728012826605 2.32361586021885 100 -4.85470908713026 1.19657832143779 100 -5 5.0532154980743e-15 100 -4.85470908713026 -1.19657832143778 100 -4.42728012826605 -2.32361586021884 100 -3.74255374085551 -3.31561329120397 100 -2.84032373365579 -4.11491932946828 100 -1.77302443521269 -4.67508121342707 100 -0.602683401276627 -4.96354437049027 100 0.602683401276603 -4.96354437049027 100 1.77302443521267 -4.67508121342708 100 2.84032373365577 -4.11491932946829 100 3.74255374085549 -3.31561329120399 100 4.42728012826604 -2.32361586021886 100 4.85470908713026 -1.19657832143781 100 5 -1.22464679914735e-15 100 5 -1.22464679914735e-15 0 4.85470908713026 1.19657832143779 0 4.42728012826605 2.32361586021884 0 3.74255374085551 3.31561329120398 0 2.84032373365578 4.11491932946828 0 1.77302443521268 4.67508121342707 0 0.602683401276616 4.96354437049027 0 -0.602683401276614 4.96354437049027 0 -1.77302443521268 4.67508121342707 0 -2.84032373365578 4.11491932946828 0 -3.7425537408555 3.31561329120398 0 -4.42728012826605 2.32361586021885 0 -4.85470908713026 1.19657832143779 0 -5 5.0532154980743e-15 0 -4.85470908713026 -1.19657832143778 0 -4.42728012826605 -2.32361586021884 0 -3.74255374085551 -3.31561329120397 0 -2.84032373365579 -4.11491932946828 0 -1.77302443521269 -4.67508121342707 0 -0.602683401276627 -4.96354437049027 0 0.602683401276603 -4.96354437049027 0 1.77302443521267 -4.67508121342708 0 2.84032373365577 -4.11491932946829 0 3.74255374085549 -3.31561329120399 0 4.42728012826604 -2.32361586021886 0 4.85470908713026 -1.19657832143781 0 5 -1.22464679914735e-15 0 0 100 0.241660973353061 100 0.483321946706122 100 0.724982920059183 100 0.966643893412244 100 1.2083048667653 100 1.44996584011837 100 1.69162681347143 100 1.93328778682449 100 2.17494876017755 100 2.41660973353061 100 2.65827070688367 100 2.89993168023673 100 3.14159265358979 100 3.38325362694285 100 3.62491460029591 100 3.86657557364897 100 4.10823654700204 100 4.3498975203551 100 4.59155849370816 100 4.83321946706122 100 5.07488044041428 100 5.31654141376734 100 5.5582023871204 100 5.79986336047346 100 6.04152433382652 100 6.28318530717959 100 0 0 0.241660973353061 0 0.483321946706122 0 0.724982920059183 0 0.966643893412244 0 1.2083048667653 0 1.44996584011837 0 1.69162681347143 0 1.93328778682449 0 2.17494876017755 0 2.41660973353061 0 2.65827070688367 0 2.89993168023673 0 3.14159265358979 0 3.38325362694285 0 3.62491460029591 0 3.86657557364897 0 4.10823654700204 0 4.3498975203551 0 4.59155849370816 0 4.83321946706122 0 5.07488044041428 0 5.31654141376734 0 5.5582023871204 0 5.79986336047346 0 6.04152433382652 0 6.28318530717959 0 1 28 29 2 1 29 3 29 30 3 2 29 4 30 31 4 31 32 4 3 30 5 4 32 6 32 33 6 5 32 7 33 34 7 6 33 8 34 35 8 35 36 8 7 34 9 8 36 10 36 37 10 9 36 11 37 38 11 10 37 12 38 39 12 11 38 13 12 39 13 39 40 14 13 40 14 40 41 14 41 42 15 14 42 16 15 42 16 42 43 17 16 43 17 43 44 18 17 44 18 44 45 19 18 45 19 45 46 20 19 46 20 46 47 21 20 47 21 47 48 21 48 49 22 21 49 23 22 49 23 49 50 24 23 50 24 50 51 25 51 52 25 24 51 25 52 53 26 25 53 27 53 54 27 26 53 
26 24 1 0.2
5 -1.22464679914735e-15 0 4.85470908713026 1.19657832143779 0 4.42728012826605 2.32361586021884 0 3.74255374085551 3.31561329120398 0 2.84032373365578 4.11491932946828 0 1.77302443521268 4.67508121342707 0 0.602683401276616 4.96354437049027 0 -0.602683401276614 4.96354437049027 0 -1.77302443521268 4.67508121342707 0 -2.84032373365578 4.11491932946828 0 -3.7425537408555 3.31561329120398 0 -4.42728012826605 2.32361586021885 0 -4.85470908713026 1.19657832143779 0 -5 5.0532154980743e-15 0 -4.85470908713026 -1.19657832143778 0 -4.42728012826605 -2.32361586021884 0 -3.74255374085551 -3.31561329120397 0 -2.84032373365579 -4.11491932946828 0 -1.77302443521269 -4.67508121342707 0 -0.602683401276627 -4.96354437049027 0 0.602683401276603 -4.96354437049027 0 1.77302443521267 -4.67508121342708 0 2.84032373365577 -4.11491932946829 0 3.74255374085549 -3.31561329120399 0 4.42728012826604 -2.32361586021886 0 4.85470908713026 -1.19657832143781 0 5 -8.88178419700125e-16 4.85470908713026 1.19657832143779 4.42728012826605 2.32361586021884 3.74255374085551 3.31561329120398 2.84032373365578 4.11491932946828 1.77302443521268 4.67508121342707 0.602683401276616 4.96354437049027 -0.602683401276614 4.96354437049027 -1.77302443521268 4.67508121342707 -2.84032373365578 4.11491932946828 -3.7425537408555 3.31561329120398 -4.42728012826605 2.32361586021885 -4.85470908713026 1.19657832143779 -5 5.32907051820075e-15 -4.85470908713026 -1.19657832143778 -4.42728012826605 -2.32361586021884 -3.74255374085551 -3.31561329120397 -2.84032373365579 -4.11491932946828 -1.77302443521269 -4.67508121342707 -0.602683401276627 -4.96354437049027 0.602683401276603 -4.96354437049027 1.77302443521267 -4.67508121342708 2.84032373365577 -4.11491932946829 3.7425537408555 -3.31561329120399 4.42728012826604 -2.32361586021886 4.85470908713026 -1.19657832143781 19 17 18 20 16 17 20 17 19 14 15 16 22 20 21 22 16 20 9 10 11 9 11 12 9 12 13 9 13 14 26 24 25 1 22 23 1 23 24 1 14 16 1 16 22 1 9 14 1 24 26 6 7 8 6 8 9 5 6 9 4 1 2 4 2 3 4 9 1 4 5 9 
9 7 1 0.3
4.99999999999982 10 0 10 10 0 10 5 0 9.87463956090911 6.1126046697816 0 9.50484433951207 7.16941869558784 0 8.9091574123401 8.11744900929373 0 8.11744900929359 8.90915741234021 0 7.16941869558767 9.50484433951215 0 6.11260466978142 9.87463956090915 0 4.99999999999982 10 10 10 10 5 9.87463956090911 6.1126046697816 9.50484433951207 7.16941869558784 8.9091574123401 8.11744900929373 8.11744900929359 8.90915741234021 7.16941869558767 9.50484433951215 6.11260466978142 9.87463956090915 2 5 4 2 6 5 2 7 6 2 8 7 2 1 9 2 9 8 3 2 4 
9 7 1 0.3
0 5 0 0 10 0 4.99999999999982 10 0 3.88739533021828 9.87463956090908 0 2.83058130441209 9.50484433951204 0 1.88255099070625 8.90915741234008 0 1.0908425876598 8.11744900929361 0 0.495155660487883 7.16941869558775 0 0.125360439090877 6.11260466978155 0 0 5 0 10 4.99999999999982 10 3.88739533021828 9.87463956090908 2.83058130441209 9.50484433951204 1.88255099070625 8.90915741234008 1.0908425876598 8.11744900929361 0.495155660487883 7.16941869558775 0.125360439090877 6.11260466978155 2 8 7 2 9 8 6 2 7 5 2 6 2 1 9 3 2 4 4 2 5 
9 7 1 0.3
0 0 0 0 5 0 4.99999999999915 0 0 0.125360439090855 3.88739533021855 0 0.495155660487798 2.83058130441243 0 1.09084258765962 1.88255099070662 0 1.88255099070595 1.09084258766016 0 2.83058130441166 0.495155660488169 0 3.88739533021772 0.125360439091044 0 0 0 0 5 4.99999999999915 0 0.125360439090855 3.88739533021855 0.495155660487798 2.83058130441243 1.09084258765962 1.88255099070662 1.88255099070595 1.09084258766016 2.83058130441166 0.495155660488169 3.88739533021772 0.125360439091044 6 1 7 8 7 1 5 1 6 9 8 1 4 1 5 3 9 1 2 1 4 
9 7 1 0.3
4.99999999999915 0 0 6.11260466978086 0.125360439090719 0 7.16941869558724 0.495155660487637 0 8.11744900929328 1.09084258765954 0 8.90915741233992 1.88255099070604 0 9.50484433951199 2.83058130441198 0 9.87463956090909 3.8873953302183 0 10 5 0 10 0 0 4.99999999999915 0 6.11260466978086 0.125360439090719 7.16941869558724 0.495155660487637 8.11744900929328 1.09084258765954 8.90915741233992 1.88255099070604 9.50484433951199 2.83058130441198 9.87463956090909 3.8873953302183 10 5 10 0 9 2 1 9 3 2 9 4 3 5 4 9 6 5 9 7 6 9 9 8 7 
6 4 1 0.3
0 10 0 4.99999999999982 10 0 0 10 10 4.99999999999982 10 10 10 10 10 10 10 0 0 0 0 4.99999999999982 10 0 10 4.99999999999982 10 10 0 10 4 2 1 4 1 3 5 6 2 5 2 4 
6 4 1 0.3
10 0 0 10 0 10 10 5 0 10 10 0 10 10 10 10 5 10 0 0 10 0 0 -5 0 -10 10 -10 10 -5 6 3 4 6 4 5 2 1 3 2 3 6 
6 4 1 0.3
0 0 0 0 0 10 0 5 0 0 10 0 0 10 10 0 5 10 0 0 10 0 0 -5 0 -10 10 -10 10 -5 5 3 4 6 3 5 2 1 3 2 3 6 
6 4 1 0.3
0 0 0 4.99999999999915 0 0 0 0 10 4.99999999999915 0 10 10 0 10 10 0 0 0 0 0 4.99999999999915 10 0 10 4.99999999999915 10 10 0 10 4 2 1 4 1 3 5 6 2 5 2 4 
4 2 1 0.05
10 0 0 10 0 10 10 10 0 10 10 10 0 0 10 0 0 -10 10 -10 2 1 3 2 3 4 
4 2 1 0.05
0 10 0 10 10 0 0 10 10 10 10 10 0 0 0 10 10 0 10 10 4 2 1 4 1 3 
9 7 1 0.3
0 5 10 0 10 10 4.99999999999982 10 10 3.88739533021828 9.87463956090908 10 2.83058130441209 9.50484433951204 10 1.88255099070625 8.90915741234008 10 1.0908425876598 8.11744900929361 10 0.495155660487883 7.16941869558775 10 0.125360439090877 6.11260466978155 10 0 5 0 10 4.99999999999982 10 3.88739533021828 9.87463956090908 2.83058130441209 9.50484433951204 1.88255099070625 8.90915741234008 1.0908425876598 8.11744900929361 0.495155660487883 7.16941869558775 0.125360439090877 6.11260466978155 2 8 7 2 9 8 6 2 7 5 2 6 2 1 9 3 2 4 4 2 5 
9 7 1 0.3
4.99999999999982 10 10 10 10 10 10 5 10 9.87463956090911 6.1126046697816 10 9.50484433951207 7.16941869558784 10 8.9091574123401 8.11744900929373 10 8.11744900929359 8.90915741234021 10 7.16941869558767 9.50484433951215 10 6.11260466978142 9.87463956090915 10 4.99999999999982 10 10 10 10 5 9.87463956090911 6.1126046697816 9.50484433951207 7.16941869558784 8.9091574123401 8.11744900929373 8.11744900929359 8.90915741234021 7.16941869558767 9.50484433951215 6.11260466978142 9.87463956090915 2 5 4 2 6 5 2 7 6 2 8 7 2 1 9 2 9 8 3 2 4 
4 2 1 0.05
0 0 0 0 0 10 0 10 0 0 10 10 0 0 10 0 0 -10 10 -10 2 1 3 2 3 4 
4 2 1 0.05
0 0 0 10 0 0 0 0 10 10 0 10 0 0 0 10 10 0 10 10 4 2 1 4 1 3 
9 7 1 0.3
4.99999999999915 0 10 6.11260466978086 0.125360439090719 10 7.16941869558724 0.495155660487637 10 8.11744900929328 1.09084258765954 10 8.90915741233992 1.88255099070604 10 9.50484433951199 2.83058130441198 10 9.87463956090909 3.8873953302183 10 10 5 10 10 0 10 4.99999999999915 0 6.11260466978086 0.125360439090719 7.16941869558724 0.495155660487637 8.11744900929328 1.09084258765954 8.90915741233992 1.88255099070604 9.50484433951199 2.83058130441198 9.87463956090909 3.8873953302183 10 5 10 0 9 2 1 9 3 2 9 4 3 5 4 9 6 5 9 7 6 9 9 8 7 
9 7 1 0.3
0 0 10 0 5 10 4.99999999999915 0 10 0.125360439090855 3.88739533021855 10 0.495155660487798 2.83058130441243 10 1.09084258765962 1.88255099070662 10 1.88255099070595 1.09084258766016 10 2.83058130441166 0.495155660488169 10 3.88739533021772 0.125360439091044 10 0 0 0 5 4.99999999999915 0 0.125360439090855 3.88739533021855 0.495155660487798 2.83058130441243 1.09084258765962 1.88255099070662 1.88255099070595 1.09084258766016 2.83058130441166 0.495155660488169 3.88739533021772 0.125360439091044 6 1 7 8 7 1 5 1 6 9 8 1 4 1 5 3 9 1 2 1 4 
56 54 1 0.3
10 5 10 10 5 60 10 5 60 9.85470908713026 6.19657832143779 60 9.42728012826605 7.32361586021884 60 8.74255374085551 8.31561329120398 60 7.84032373365578 9.11491932946828 60 6.77302443521268 9.67508121342707 60 5.60268340127662 9.96354437049027 60 4.39731659872339 9.96354437049027 60 3.22697556478732 9.67508121342707 60 2.15967626634422 9.11491932946828 60 1.2574462591445 8.31561329120398 60 0.572719871733952 7.32361586021885 60 0.145290912869741 6.19657832143779 60 0 5.00000000000001 60 0.145290912869738 3.80342167856222 60 0.572719871733947 2.67638413978116 60 1.25744625914449 1.68438670879603 60 2.15967626634421 0.885080670531723 60 3.22697556478731 0.32491878657293 60 4.39731659872337 0.0364556295097316 60 5.6026834012766 0.036455629509728 60 6.77302443521267 0.324918786572921 60 7.84032373365577 0.88508067053171 60 8.7425537408555 1.68438670879601 60 9.42728012826604 2.67638413978114 60 9.85470908713026 3.80342167856219 60 10 5 10 9.87463956090911 6.1126046697816 10 9.50484433951207 7.16941869558784 10 8.9091574123401 8.11744900929373 10 8.11744900929359 8.90915741234021 10 7.16941869558767 9.50484433951215 10 6.11260466978142 9.87463956090915 10 4.99999999999982 10 10 3.88739533021828 9.87463956090908 10 2.83058130441209 9.50484433951204 10 1.88255099070625 8.90915741234008 10 1.0908425876598 8.11744900929361 10 0.495155660487883 7.16941869558775 10 0.125360439090877 6.11260466978155 10 0 5 10 0.125360439090855 3.88739533021855 10 0.495155660487798 2.83058130441243 10 1.09084258765962 1.88255099070662 10 1.88255099070595 1.09084258766016 10 2.83058130441166 0.495155660488169 10 3.88739533021772 0.125360439091044 10 4.99999999999915 0 10 6.11260466978086 0.125360439090719 10 7.16941869558724 0.495155660487637 10 8.11744900929328 1.09084258765954 10 8.90915741233992 1.88255099070604 10 9.50484433951199 2.83058130441198 10 9.87463956090909 3.8873953302183 10 6.28318530717959 0 6.28318530717959 50 0 50 0.241660973353061 50 0.483321946706122 50 0.724982920059183 50 0.966643893412244 50 1.2083048667653 50 1.44996584011837 50 1.69162681347143 50 1.93328778682449 50 2.17494876017755 50 2.41660973353061 50 2.65827070688367 50 2.89993168023673 50 3.14159265358979 50 3.38325362694285 50 3.62491460029591 50 3.86657557364897 50 4.10823654700204 50 4.3498975203551 50 4.59155849370816 50 4.83321946706122 50 5.07488044041428 50 5.31654141376734 50 5.5582023871204 50 5.79986336047346 50 6.04152433382652 50 0 0 0.224399475256419 0 0.448798950512838 0 0.673198425769257 0 0.897597901025676 0 1.1219973762821 0 1.34639685153851 0 1.57079632679493 0 1.79519580205134 0 2.01959527730775 0 2.24399475256416 0 2.46839422782057 0 2.69279370307698 0 2.91719317833338 0 3.14159265358979 0 3.36599212884618 0 3.59039160410257 0 3.81479107935896 0 4.03919055461535 0 4.26359002987174 0 4.48798950512813 0 4.71238898038452 0 4.93678845564096 0 5.16118793089739 0 5.38558740615383 0 5.60998688141027 0 5.83438635666671 0 6.05878583192315 0 3 29 30 4 30 31 4 3 30 5 31 32 5 4 31 6 32 33 6 5 32 7 33 34 7 6 33 8 34 35 8 7 34 9 35 36 9 8 35 10 36 37 10 9 36 11 37 38 11 10 37 12 38 39 12 11 38 13 12 39 13 39 40 14 13 40 14 40 41 15 14 41 15 41 42 16 15 42 16 42 43 16 43 44 17 16 44 17 44 45 18 17 45 18 45 46 19 18 46 19 46 47 20 19 47 20 47 48 21 20 48 21 48 49 22 21 49 22 49 50 23 22 50 23 50 51 24 23 51 24 51 52 25 24 52 25 52 53 26 25 53 26 53 54 27 54 55 27 26 54 28 55 56 28 27 55 2 56 1 2 28 56 
54 52 1 0.116666666666667
5 -1.22464679914735e-15 50 4.85470908713026 1.19657832143779 50 4.42728012826605 2.32361586021884 50 3.74255374085551 3.31561329120398 50 2.84032373365578 4.11491932946828 50 1.77302443521268 4.67508121342707 50 0.602683401276616 4.96354437049027 50 -0.602683401276614 4.96354437049027 50 -1.77302443521268 4.67508121342707 50 -2.84032373365578 4.11491932946828 50 -3.7425537408555 3.31561329120398 50 -4.42728012826605 2.32361586021885 50 -4.85470908713026 1.19657832143779 50 -5 5.0532154980743e-15 50 -4.85470908713026 -1.19657832143778 50 -4.42728012826605 -2.32361586021884 50 -3.74255374085551 -3.31561329120397 50 -2.84032373365579 -4.11491932946828 50 -1.77302443521269 -4.67508121342707 50 -0.602683401276627 -4.96354437049027 50 0.602683401276603 -4.96354437049027 50 1.77302443521267 -4.67508121342708 50 2.84032373365577 -4.11491932946829 50 3.74255374085549 -3.31561329120399 50 4.42728012826604 -2.32361586021886 50 4.85470908713026 -1.19657832143781 50 5 -1.22464679914735e-15 50 5 -1.22464679914735e-15 0 4.85470908713026 1.19657832143779 0 4.42728012826605 2.32361586021884 0 3.74255374085551 3.31561329120398 0 2.84032373365578 4.11491932946828 0 1.77302443521268 4.67508121342707 0 0.602683401276616 4.96354437049027 0 -0.602683401276614 4.96354437049027 0 -1.77302443521268 4.67508121342707 0 -2.84032373365578 4.11491932946828 0 -3.7425537408555 3.31561329120398 0 -4.42728012826605 2.32361586021885 0 -4.85470908713026 1.19657832143779 0 -5 5.0532154980743e-15 0 -4.85470908713026 -1.19657832143778 0 -4.42728012826605 -2.32361586021884 0 -3.74255374085551 -3.31561329120397 0 -2.84032373365579 -4.11491932946828 0 -1.77302443521269 -4.67508121342707 0 -0.602683401276627 -4.96354437049027 0 0.602683401276603 -4.96354437049027 0 1.77302443521267 -4.67508121342708 0 2.84032373365577 -4.11491932946829 0 3.74255374085549 -3.31561329120399 0 4.42728012826604 -2.32361586021886 0 4.85470908713026 -1.19657832143781 0 5 -1.22464679914735e-15 0 0 50 0.241660973353061 50 0.483321946706122 50 0.724982920059183 50 0.966643893412244 50 1.2083048667653 50 1.44996584011837 50 1.69162681347143 50 1.93328778682449 50 2.17494876017755 50 2.41660973353061 50 2.65827070688367 50 2.89993168023673 50 3.14159265358979 50 3.38325362694285 50 3.62491460029591 50 3.86657557364897 50 4.10823654700204 50 4.3498975203551 50 4.59155849370816 50 4.83321946706122 50 5.07488044041428 50 5.31654141376734 50 5.5582023871204 50 5.79986336047346 50 6.04152433382652 50 6.28318530717959 50 0 0 0.241660973353061 0 0.483321946706122 0 0.724982920059183 0 0.966643893412244 0 1.2083048667653 0 1.44996584011837 0 1.69162681347143 0 1.93328778682449 0 2.17494876017755 0 2.41660973353061 0 2.65827070688367 0 2.89993168023673 0 3.14159265358979 0 3.38325362694285 0 3.62491460029591 0 3.86657557364897 0 4.10823654700204 0 4.3498975203551 0 4.59155849370816 0 4.83321946706122 0 5.07488044041428 0 5.31654141376734 0 5.5582023871204 0 5.79986336047346 0 6.04152433382652 0 6.28318530717959 0 2 1 28 2 28 29 3 29 30 3 2 29 4 30 31 4 3 30 5 31 32 5 4 31 6 32 33 6 5 32 7 33 34 7 6 33 8 34 35 8 7 34 9 35 36 9 36 37 9 8 35 10 9 37 11 37 38 11 10 37 12 11 38 12 38 39 13 12 39 13 39 40 13 40 41 14 13 41 14 41 42 15 14 42 16 15 42 16 42 43 17 16 43 17 43 44 18 17 44 18 44 45 19 18 45 19 45 46 20 19 46 20 46 47 20 47 48 21 20 48 22 21 48 22 48 49 22 49 50 23 22 50 24 23 50 24 50 51 25 24 51 25 51 52 26 52 53 26 53 54 26 25 52 27 26 54 
26 24 1 0.116666666666667
5 -1.22464679914735e-15 50 4.85470908713026 1.19657832143779 50 4.42728012826605 2.32361586021884 50 3.74255374085551 3.31561329120398 50 2.84032373365578 4.11491932946828 50 1.77302443521268 4.67508121342707 50 0.602683401276616 4.96354437049027 50 -0.602683401276614 4.96354437049027 50 -1.77302443521268 4.67508121342707 50 -2.84032373365578 4.11491932946828 50 -3.7425537408555 3.31561329120398 50 -4.42728012826605 2.32361586021885 50 -4.85470908713026 1.19657832143779 50 -5 5.0532154980743e-15 50 -4.85470908713026 -1.19657832143778 50 -4.42728012826605 -2.32361586021884 50 -3.74255374085551 -3.31561329120397 50 -2.84032373365579 -4.11491932946828 50 -1.77302443521269 -4.67508121342707 50 -0.602683401276627 -4.96354437049027 50 0.602683401276603 -4.96354437049027 50 1.77302443521267 -4.67508121342708 50 2.84032373365577 -4.11491932946829 50 3.74255374085549 -3.31561329120399 50 4.42728012826604 -2.32361586021886 50 4.85470908713026 -1.19657832143781 50 5 -8.88178419700125e-16 4.85470908713026 1.19657832143779 4.42728012826605 2.32361586021884 3.74255374085551 3.31561329120398 2.84032373365578 4.11491932946828 1.77302443521268 4.67508121342707 0.602683401276616 4.96354437049027 -0.602683401276614 4.96354437049027 -1.77302443521268 4.67508121342707 -2.84032373365578 4.11491932946828 -3.7425537408555 3.31561329120398 -4.42728012826605 2.32361586021885 -4.85470908713026 1.19657832143779 -5 5.32907051820075e-15 -4.85470908713026 -1.19657832143778 -4.42728012826605 -2.32361586021884 -3.74255374085551 -3.31561329120397 -2.84032373365579 -4.11491932946828 -1.77302443521269 -4.67508121342707 -0.602683401276627 -4.96354437049027 0.602683401276603 -4.96354437049027 1.77302443521267 -4.67508121342708 2.84032373365577 -4.11491932946829 3.7425537408555 -3.31561329120399 4.42728012826604 -2.32361586021886 4.85470908713026 -1.19657832143781 19 17 18 20 16 17 20 17 19 14 15 16 22 20 21 22 16 20 9 10 11 9 11 12 9 12 13 9 13 14 26 24 25 1 22 23 1 23 24 1 14 16 1 16 22 1 9 14 1 24 26 6 7 8 6 8 9 5 6 9 4 1 2 4 2 3 4 9 1 4 5 9 

TShapes 86
Ve
1.0000000116861e-07
5 -1.22464679914735e-15 100
0 0

0101101
*
Ve
1e-07
5 -1.22464679914735e-15 0
0 0

0101101
*
Ed
 1e-07 1 1 0
1  1 0 0 100
3  1 2CN 1 0 0 100
7  1 2 2 0
7  3 4 1 5
0

0101000
-86 0 +85 0 *
Ed
 1e-07 1 1 0
1  2 0 0 6.28318530717959
2  3 1 0 0 6.28318530717959
2  4 2 0 0 6.28318530717959
6  5 2 0
6  6 3 0
6  7 1 5
0

0101000
+85 0 -85 0 *
Ve
1.00000000280431e-07
4.99999999999982 10 0
0 0

0101101
*
Ed
 1e-07 1 1 0
1  3 0 0 1.57079632679493
2  5 1 0 0 1.57079632679493
2  6 3 0 0 1.57079632679493
2  7 4 8 0 1.57079632679493
6  8 1 5
6  9 4 5
0

0101000
+86 0 -82 5 *
Ve
1.00000004440892e-07
0 5 0
0 0

0101101
*
Ed
 1e-07 1 1 0
1  3 0 1.57079632679493 3.14159265358979
2  5 1 0 1.57079632679493 3.14159265358979
2  6 3 0 1.57079632679493 3.14159265358979
2  8 4 8 1.57079632679493 3.14159265358979
6  10 1 5
6  11 5 5
0

0101000
+82 5 -80 5 *
Ve
1.00000000280431e-07
4.99999999999915 0 0
0 0

0101101
*
Ed
 1e-07 1 1 0
1  3 0 3.14159265358979 4.71238898038452
2  5 1 0 3.14159265358979 4.71238898038452
2  6 3 0 3.14159265358979 4.71238898038452
2  9 4 8 3.14159265358979 4.71238898038452
6  12 1 5
6  13 6 5
0

0101000
+80 5 -78 5 *
Ed
 1e-07 1 1 0
1  3 0 4.71238898038452 6.28318530717959
2  5 1 0 4.71238898038452 6.28318530717959
2  6 3 0 4.71238898038452 6.28318530717959
2  10 4 8 4.71238898038452 6.28318530717959
6  14 1 5
6  15 7 5
0

0101000
+78 5 -86 0 *
Wi

0101100
+84 4 +83 4 -84 4 -81 4 -79 4 -77 4 -76 4 *
Fa
0  1e-07 1 4
2  1
0101000
+75 0 *
Wi

0101100
-83 0 *
Fa
0  1e-07 2 0
2  3
0111000
-73 0 *
Ve
1e-07
10 10 0
0 0

0101101
*
Ed
 1e-07 1 1 0
1  4 0 4.99999999999982 10
2  11 5 0 4.99999999999982 10
2  12 4 0 4.99999999999982 10
6  16 4 10
6  17 8 10
0

0101000
+82 10 -71 0 *
Ed
 1e-07 1 1 0
1  5 0 5 10
2  13 6 0 5 10
2  14 4 0 5 10
6  18 4 10
6  19 9 10
0

0101000
+86 11 -71 0 *
Wi

0101100
-70 9 +69 9 -81 4 *
Fa
0  1e-07 4 9
2  4
0101000
+68 0 *
Ve
1e-07
0 10 0
0 0

0101101
*
Ed
 1e-07 1 1 0
1  6 0 5 10
2  15 7 0 5 10
2  16 4 0 5 10
6  20 5 10
6  21 10 10
0

0101000
+80 10 -66 0 *
Ed
 1e-07 1 1 0
1  4 0 0 4.99999999999982
2  11 5 0 0 4.99999999999982
2  12 4 0 0 4.99999999999982
6  22 5 10
6  23 8 10
0

0101000
+66 0 -82 10 *
Wi

0101100
-65 9 -64 9 -79 4 *
Fa
0  1e-07 4 9
2  5
0101000
+63 0 *
Ve
1e-07
0 0 0
0 0

0101101
*
Ed
 1e-07 1 1 0
1  6 0 0 5
2  15 7 0 0 5
2  16 4 0 0 5
6  24 6 10
6  25 10 10
0

0101000
+61 0 -80 10 *
Ed
 1e-07 1 1 0
1  7 0 0 4.99999999999915
2  17 8 0 0 4.99999999999915
2  18 4 0 0 4.99999999999915
6  26 6 10
6  27 11 10
0

0101000
+61 0 -78 10 *
Wi

0101100
-60 9 -77 4 +59 9 *
Fa
0  1e-07 4 9
2  6
0101000
+58 0 *
Ve
1e-07
10 0 0
0 0

0101101
*
Ed
 1e-07 1 1 0
1  5 0 0 5
2  13 6 0 0 5
2  14 4 0 0 5
6  28 7 10
6  29 9 10
0

0101000
+56 0 -86 11 *
Ed
 1e-07 1 1 0
1  7 0 4.99999999999915 10
2  17 8 0 4.99999999999915 10
2  18 4 0 4.99999999999915 10
6  30 7 10
6  31 11 10
0

0101000
+78 10 -56 0 *
Wi

0101100
-76 4 +55 9 +54 9 *
Fa
0  1e-07 4 9
2  7
0101000
+53 0 *
Ve
1e-07
10 10 10
0 0

0101101
*
Ed
 1e-07 1 1 0
1  8 0 0 10
2  19 6 0 0 10
2  20 5 0 0 10
6  32 12 0
6  33 13 0
6  34 8 10
6  35 9 10
0

0101000
-51 0 +71 0 *
Ve
1e-07
0 10 10
0 0

0101101
*
Ve
1.00000000280431e-07
4.99999999999982 10 10
0 0

0101101
*
Ed
 1e-07 1 1 0
1  9 0 0 4.99999999999982
2  21 5 0 0 4.99999999999982
2  22 9 0 0 4.99999999999982
6  36 8 10
6  37 14 10
0

0101000
+49 0 -48 10 *
Ed
 1e-07 1 1 0
1  9 0 4.99999999999982 10
2  21 5 0 4.99999999999982 10
2  22 9 0 4.99999999999982 10
6  38 8 10
6  39 15 10
0

0101000
+48 10 -51 0 *
Ed
 1e-07 1 1 0
1  10 0 0 10
2  23 7 0 0 10
2  24 5 0 0 10
6  40 16 0
6  41 13 0
6  42 8 10
6  43 10 10
0

0101000
-49 0 +66 0 *
Wi

0101100
-64 9 -70 9 -50 9 +47 9 +46 9 +45 9 *
Fa
0  1e-07 5 9
2  8
0101000
+44 0 *
Ve
1e-07
10 0 10
0 0

0101101
*
Ed
 1e-07 1 1 0
1  11 0 0 10
2  25 6 0 0 10
2  26 8 0 0 10
6  44 12 0
6  45 17 0
6  46 9 10
6  47 11 10
0

0101000
-42 0 +56 0 *
Ve
1.0000000116861e-07
5 -1.22464679914735e-15 0
0 0

0101101
*
Ed
 1e-07 1 1 0
1  12 0 0 5
2  27 6 0 0 5
2  28 9 0 0 5
6  48 9 10
6  49 18 10
0

0101000
+42 0 -40 14 *
Ed
 1e-07 1 1 0
1  12 0 5 10
2  27 6 0 5 10
2  28 9 0 5 10
6  50 9 10
6  51 15 10
0

0101000
+40 14 -51 0 *
Wi

0101100
-41 9 -39 9 -38 9 +50 9 +55 9 +69 9 *
Fa
0  1e-07 6 9
2  9
0101000
+37 0 *
Ve
1e-07
0 0 10
0 0

0101101
*
Ed
 1e-07 1 1 0
1  13 0 0 10
2  29 7 0 0 10
2  30 8 0 0 10
6  52 16 0
6  53 17 0
6  54 10 10
6  55 11 10
0

0101000
-35 0 +61 0 *
Ve
1.00000004440892e-07
0 5 10
0 0

0101101
*
Ed
 1e-07 1 1 0
1  14 0 0 5
2  31 7 0 0 5
2  32 9 0 0 5
6  56 10 10
6  57 19 10
0

0101000
+35 0 -33 10 *
Ed
 1e-07 1 1 0
1  14 0 5 10
2  31 7 0 5 10
2  32 9 0 5 10
6  58 10 10
6  59 14 10
0

0101000
+33 10 -49 0 *
Wi

0101100
-34 9 -32 9 -31 9 +45 9 +60 9 +65 9 *
Fa
0  1e-07 7 9
2  10
0101000
+30 0 *
Ve
1.00000000280431e-07
4.99999999999915 0 10
0 0

0101101
*
Ed
 1e-07 1 1 0
1  15 0 0 4.99999999999915
2  33 8 0 0 4.99999999999915
2  34 9 0 0 4.99999999999915
6  60 11 10
6  61 19 10
0

0101000
+35 0 -28 10 *
Ed
 1e-07 1 1 0
1  15 0 4.99999999999915 10
2  33 8 0 4.99999999999915 10
2  34 9 0 4.99999999999915 10
6  62 11 10
6  63 18 10
0

0101000
+28 10 -42 0 *
Wi

0101100
-59 9 -54 9 -41 9 +27 9 +26 9 +34 9 *
Fa
0  1e-07 8 9
2  11
0101000
+25 0 *
Ed
 1e-07 1 1 0
1  16 0 1.57079632679493 3.14159265358979
2  35 10 0 1.57079632679493 3.14159265358979
2  36 11 0 1.57079632679493 3.14159265358979
2  37 9 16 1.57079632679493 3.14159265358979
6  64 20 17
6  65 14 17
0

0101000
+48 17 -33 17 *
Wi

0101100
-31 9 -47 9 -23 15 *
Fa
0  1e-07 9 9
2  14
0101000
+22 0 *
Ed
 1e-07 1 1 0
1  16 0 0 1.57079632679493
2  35 10 0 0 1.57079632679493
2  36 11 0 0 1.57079632679493
2  38 9 16 0 1.57079632679493
6  66 20 17
6  67 15 17
0

0101000
+40 0 -48 17 *
Wi

0101100
-46 9 +38 9 -20 15 *
Fa
0  1e-07 9 9
2  15
0101000
+19 0 *
Ed
 1e-07 1 1 0
1  16 0 4.71238898038452 6.28318530717959
2  35 10 0 4.71238898038452 6.28318530717959
2  36 11 0 4.71238898038452 6.28318530717959
2  39 9 16 4.71238898038452 6.28318530717959
6  68 20 17
6  69 18 17
0

0101000
+28 17 -40 0 *
Wi

0101100
-17 15 +39 9 +26 9 *
Fa
0  1e-07 9 9
2  18
0101000
+16 0 *
Ed
 1e-07 1 1 0
1  16 0 3.14159265358979 4.71238898038452
2  35 10 0 3.14159265358979 4.71238898038452
2  36 11 0 3.14159265358979 4.71238898038452
2  40 9 16 3.14159265358979 4.71238898038452
6  70 20 17
6  71 19 17
0

0101000
+33 17 -28 17 *
Wi

0101100
-32 9 -14 15 +27 9 *
Fa
0  1e-07 9 9
2  19
0101000
+13 0 *
Ve
1e-07
5 -1.22464679914735e-15 50
0 0

0101101
*
Ed
 1e-07 1 1 0
1  17 0 0 50
3  41 42CN 10 0 0 50
7  72 73 21 0
7  74 75 20 17
0

0101000
-11 0 +40 0 *
Ed
 1e-07 1 1 0
1  18 0 0 6.28318530717959
2  43 10 0 0 6.28318530717959
2  44 12 0 0 6.28318530717959
6  76 21 0
6  77 22 0
6  78 20 17
0

0101000
+11 0 -11 0 *
Wi

0101100
+10 15 +17 15 +14 15 +23 15 +20 15 -10 15 -9 15 *
Fa
0  1e-07 10 15
2  20
0101000
+8 0 *
Wi

0101100
+9 0 *
Fa
0  1e-07 12 0
2  22
0111000
+6 0 *
Sh

0101100
+74 0 -72 4 -67 0 -62 0 -57 0 -52 0 +43 0 +36 0 -29 0 -24 0 
+21 0 +18 0 +15 0 +12 0 +7 0 +5 15 *
So

0100000
+4 0 *
Co

0100000
+3 0 *
Co

1100000
+2 1 *

+1 0 